<svg width="351" height="188" viewBox="0 0 351 188" fill="none" xmlns="http://www.w3.org/2000/svg">
<g filter="url(#filter0_d_4004_35)">
<path d="M114.717 169.84C111.989 171.521 109.395 172.31 106.935 172.205C104.488 172.093 102.229 171.279 100.16 169.763C98.1033 168.238 96.2945 166.21 94.7334 163.678C93.124 161.068 92.1526 158.469 91.819 155.883C91.4984 153.288 91.852 150.882 92.8799 148.663C93.9127 146.423 95.6756 144.535 98.1686 142.998C100.244 141.718 102.239 140.966 104.153 140.74C106.068 140.515 107.873 140.726 109.569 141.373C111.278 142.013 112.854 143.005 114.295 144.35C115.737 145.695 117.037 147.307 118.196 149.186C119.282 150.948 120.092 152.773 120.625 154.66C121.171 156.539 121.353 158.399 121.173 160.239C121.006 162.071 120.404 163.812 119.366 165.46C118.342 167.1 116.792 168.56 114.717 169.84ZM110.913 163.538C112.244 162.717 113.129 161.668 113.565 160.39C114.015 159.104 114.1 157.737 113.82 156.288C113.531 154.827 112.973 153.424 112.144 152.08C111.532 151.088 110.847 150.195 110.088 149.402C109.321 148.596 108.501 147.967 107.627 147.515C106.754 147.062 105.823 146.853 104.835 146.886C103.846 146.919 102.817 147.265 101.747 147.925C100.533 148.673 99.714 149.683 99.2901 150.953C98.8662 152.223 98.795 153.626 99.0765 155.164C99.3631 156.681 99.9771 158.203 100.919 159.73C101.755 161.087 102.688 162.205 103.716 163.085C104.75 163.943 105.868 164.442 107.072 164.583C108.288 164.715 109.569 164.367 110.913 163.538ZM129.657 159.251C129.037 158.246 128.267 156.982 127.347 155.46C126.426 153.938 125.428 152.275 124.352 150.471C123.267 148.654 122.165 146.793 121.046 144.889C119.926 142.986 118.853 141.143 117.827 139.362C116.801 137.581 115.897 135.968 115.114 134.523C115.7 134.072 116.406 133.565 117.23 133.003C118.067 132.432 118.893 131.887 119.707 131.367C120.526 130.826 121.223 130.378 121.797 130.024C122.364 129.657 122.679 129.454 122.745 129.413C122.803 129.45 123.087 129.706 123.598 130.184C124.122 130.654 124.789 131.269 125.601 132.03C126.425 132.783 127.325 133.615 128.301 134.526C129.277 135.437 130.266 136.368 131.266 137.319C132.279 138.261 133.237 139.157 134.139 140.006C135.032 140.842 135.789 141.573 136.41 142.199C137.043 142.818 137.47 143.248 137.691 143.49L137.027 144.034C136.933 143.588 136.758 142.867 136.504 141.871C136.25 140.875 135.948 139.728 135.599 138.43C135.254 137.111 134.877 135.741 134.468 134.317C134.064 132.873 133.672 131.476 133.29 130.127C132.908 128.777 132.557 127.579 132.237 126.534C131.921 125.467 131.671 124.667 131.486 124.133C132.034 123.795 132.74 123.377 133.605 122.88C134.482 122.375 135.374 121.879 136.281 121.392C137.188 120.905 137.96 120.537 138.599 120.287C139.584 121.301 140.705 122.709 141.96 124.511C143.207 126.3 144.47 128.232 145.749 130.308C146.779 131.978 147.799 133.691 148.809 135.446C149.824 137.18 150.755 138.822 151.602 140.371C152.45 141.921 153.145 143.239 153.69 144.326C153.05 144.721 152.35 145.134 151.59 145.567C150.83 145.999 150.099 146.405 149.396 146.784C148.698 147.143 148.145 147.429 147.737 147.645C147.28 146.756 146.667 145.63 145.898 144.266C145.142 142.895 144.346 141.486 143.508 140.039C143.008 139.14 142.491 138.243 141.957 137.348C141.436 136.444 140.956 135.623 140.519 134.884C140.094 134.137 139.764 133.557 139.527 133.144C139.697 133.742 139.906 134.532 140.151 135.515C140.402 136.477 140.666 137.548 140.944 138.729C141.234 139.901 141.513 141.098 141.78 142.32C142.052 143.521 142.303 144.673 142.532 145.774C142.773 146.868 142.972 147.818 143.126 148.623C143.293 149.421 143.392 149.99 143.423 150.332C143.248 150.457 142.975 150.644 142.605 150.89C142.24 151.115 141.959 151.288 141.763 151.409C141.411 151.626 141.037 151.838 140.643 152.046C140.253 152.232 139.82 152.436 139.344 152.657C139.2 152.511 138.898 152.211 138.438 151.757C137.991 151.294 137.428 150.731 136.749 150.069C136.07 149.407 135.328 148.684 134.522 147.903C133.72 147.1 132.905 146.288 132.074 145.467C131.236 144.632 130.417 143.831 129.619 143.062C128.821 142.293 128.095 141.597 127.44 140.974C126.799 140.343 126.272 139.839 125.86 139.463C126.637 140.695 127.457 142.009 128.318 143.405C129.192 144.794 130.043 146.16 130.872 147.505C131.701 148.849 132.465 150.089 133.165 151.225C133.87 152.339 134.452 153.268 134.911 154.012C135.37 154.756 135.647 155.206 135.744 155.363C135.295 155.658 134.726 156.035 134.037 156.496C133.341 156.944 132.611 157.411 131.849 157.899C131.079 158.374 130.348 158.825 129.657 159.251ZM177.404 129.977C176.615 130.481 175.762 130.98 174.842 131.475C173.943 131.975 173.102 132.422 172.318 132.815C171.533 133.208 170.923 133.504 170.486 133.701C170.406 133.57 170.184 133.212 169.822 132.624C169.46 132.037 168.997 131.286 168.434 130.373C167.871 129.459 167.247 128.447 166.563 127.338C165.871 126.216 165.155 125.054 164.415 123.853C163.687 122.644 162.97 121.466 162.262 120.317C161.385 118.894 160.509 117.489 159.635 116.1C158.753 114.699 157.929 113.405 157.162 112.221C156.388 111.023 155.729 110.042 155.186 109.278C155.447 109.117 155.853 108.885 156.404 108.581C156.955 108.277 157.563 107.948 158.227 107.592C158.903 107.229 159.569 106.891 160.222 106.578C160.868 106.252 161.426 105.989 161.897 105.789C163.502 106.493 165.09 107.243 166.662 108.039C168.239 108.814 169.778 109.631 171.279 110.488C172.786 111.325 174.246 112.19 175.662 113.083C177.09 113.967 178.46 114.861 179.773 115.763L169.519 100.928C169.911 100.686 170.399 100.412 170.984 100.105C171.583 99.7905 172.198 99.4741 172.831 99.1561C173.477 98.8301 174.078 98.5494 174.635 98.3139C175.206 98.0703 175.646 97.9072 175.955 97.8246C176.34 98.3617 176.778 98.9836 177.267 99.6904C177.762 100.376 178.28 101.129 178.821 101.948C179.354 102.754 179.907 103.593 180.481 104.464C181.046 105.323 181.609 106.192 182.169 107.071C182.721 107.938 183.247 108.775 183.746 109.585C184.558 110.903 185.343 112.22 186.101 113.537C186.863 114.832 187.554 116.054 188.173 117.204C188.796 118.332 189.309 119.295 189.71 120.093C190.104 120.877 190.338 121.417 190.412 121.713C190.055 121.952 189.672 122.206 189.262 122.477C188.857 122.726 188.446 122.98 188.028 123.237C187.415 123.615 186.807 123.972 186.203 124.308C185.613 124.636 185.102 124.888 184.67 125.065C184.394 124.91 183.927 124.649 183.268 124.281C182.614 123.891 181.815 123.429 180.872 122.893C179.922 122.345 178.888 121.748 177.77 121.104C176.653 120.46 175.51 119.805 174.342 119.138C173.166 118.458 172.013 117.8 170.882 117.164C169.752 116.528 168.715 115.942 167.772 115.406C168.037 115.748 168.418 116.278 168.916 116.998C169.414 117.718 169.977 118.559 170.607 119.522C171.25 120.477 171.91 121.475 172.588 122.516C173.258 123.544 173.916 124.553 174.561 125.541C175.199 126.517 175.77 127.399 176.274 128.187C176.769 128.963 177.146 129.559 177.404 129.977ZM207.025 112.93C204.298 114.612 201.704 115.401 199.243 115.296C196.796 115.184 194.538 114.369 192.468 112.853C190.412 111.329 188.603 109.301 187.042 106.769C185.433 104.158 184.461 101.56 184.128 98.9736C183.807 96.3792 184.161 93.9726 185.188 91.7538C186.221 89.5139 187.984 87.6254 190.477 86.0885C192.552 84.8091 194.547 84.0565 196.462 83.831C198.376 83.6054 200.182 83.8164 201.878 84.4639C203.587 85.1034 205.162 86.0956 206.604 87.4405C208.045 88.7854 209.346 90.3976 210.504 92.2771C211.591 94.0391 212.4 95.8637 212.933 97.7507C213.479 99.6297 213.662 101.489 213.482 103.33C213.314 105.162 212.712 106.903 211.675 108.551C210.651 110.191 209.101 111.651 207.025 112.93ZM203.222 106.629C204.553 105.808 205.437 104.759 205.874 103.481C206.324 102.195 206.409 100.827 206.128 99.3791C205.84 97.9177 205.281 96.5149 204.452 95.1705C203.841 94.1785 203.156 93.2861 202.397 92.4931C201.629 91.6871 200.809 91.058 199.936 90.6056C199.063 90.1533 198.132 89.9436 197.143 89.9766C196.155 90.0095 195.126 90.3559 194.055 91.0158C192.841 91.7641 192.023 92.7733 191.599 94.0434C191.175 95.3134 191.104 96.7173 191.385 98.255C191.672 99.7716 192.286 101.293 193.227 102.821C194.064 104.178 194.997 105.296 196.025 106.175C197.058 107.033 198.177 107.533 199.38 107.673C200.597 107.806 201.877 107.458 203.222 106.629ZM221.965 102.342C221.346 101.337 220.576 100.073 219.655 98.5512C218.735 97.0291 217.736 95.3659 216.66 93.5617C215.576 91.7444 214.474 89.8839 213.354 87.9802C212.235 86.0766 211.162 84.2342 210.136 82.453C209.11 80.6718 208.205 79.0588 207.423 77.6139C208.009 77.1624 208.714 76.6555 209.538 76.0933C210.376 75.5231 211.201 74.978 212.016 74.458C212.835 73.9169 213.532 73.4693 214.106 73.1152C214.672 72.7481 214.988 72.5445 215.053 72.5042C215.112 72.5403 215.396 72.7973 215.907 73.275C216.431 73.7447 217.098 74.3599 217.909 75.1207C218.734 75.8734 219.634 76.7054 220.61 77.6167C221.586 78.528 222.574 79.4589 223.575 80.4094C224.588 81.3518 225.545 82.2475 226.447 83.0966C227.341 83.9327 228.098 84.6638 228.718 85.2902C229.352 85.9084 229.779 86.3385 230 86.5804L229.336 87.1249C229.241 86.679 229.067 85.9579 228.813 84.9616C228.559 83.9653 228.257 82.8184 227.907 81.5209C227.563 80.2022 227.186 78.8313 226.777 77.4083C226.373 75.9641 225.98 74.5671 225.598 73.2174C225.217 71.8676 224.865 70.67 224.545 69.6246C224.23 68.558 223.98 67.7576 223.794 67.2234C224.343 66.8854 225.049 66.4679 225.913 65.971C226.791 65.466 227.683 64.9701 228.59 64.4831C229.496 63.9962 230.269 63.6279 230.908 63.3783C231.893 64.392 233.013 65.8 234.268 67.6021C235.515 69.3911 236.779 71.3233 238.058 73.3986C239.088 75.0692 240.108 76.7821 241.118 78.5372C242.133 80.2712 243.064 81.9128 243.911 83.4621C244.758 85.0114 245.454 86.3297 245.998 87.4172C245.359 87.8115 244.659 88.2249 243.899 88.6575C243.139 89.09 242.407 89.496 241.704 89.8752C241.007 90.2334 240.454 90.5202 240.046 90.7355C239.588 89.8468 238.975 88.7208 238.207 87.3573C237.451 85.9857 236.654 84.5765 235.816 83.1297C235.316 82.231 234.799 81.3339 234.265 80.4383C233.744 79.5347 233.265 78.7134 232.827 77.9744C232.403 77.2274 232.072 76.6475 231.836 76.2349C232.006 76.8324 232.214 77.6228 232.46 78.606C232.711 79.5682 232.975 80.6393 233.252 81.8194C233.543 82.9914 233.821 84.1886 234.088 85.4108C234.361 86.612 234.611 87.7635 234.84 88.8653C235.082 89.959 235.28 90.9086 235.435 91.7141C235.602 92.5116 235.701 93.081 235.731 93.4226C235.557 93.5483 235.284 93.7343 234.914 93.9807C234.548 94.206 234.268 94.3791 234.072 94.4998C233.719 94.717 233.346 94.9293 232.951 95.1365C232.562 95.3227 232.129 95.5265 231.653 95.7478C231.509 95.6023 231.207 95.3022 230.747 94.8475C230.299 94.3848 229.736 93.8222 229.058 93.1598C228.379 92.4974 227.637 91.7752 226.83 90.9934C226.029 90.1904 225.213 89.3784 224.383 88.5574C223.544 87.7233 222.726 86.9219 221.928 86.1531C221.13 85.3842 220.403 84.6882 219.749 84.0649C219.107 83.4336 218.581 82.9298 218.168 82.5534C218.946 83.7853 219.765 85.0996 220.626 86.4962C221.5 87.8847 222.352 89.2512 223.181 90.5955C224.009 91.9399 224.774 93.1799 225.474 94.3154C226.179 95.4298 226.761 96.3591 227.22 97.103C227.678 97.847 227.956 98.2973 228.052 98.4539C227.604 98.7486 227.035 99.1263 226.346 99.5869C225.649 100.035 224.92 100.502 224.158 100.99C223.388 101.465 222.657 101.915 221.965 102.342ZM269.712 73.0674C268.924 73.5713 268.07 74.0708 267.15 74.5657C266.252 75.0657 265.41 75.5124 264.626 75.9058C263.842 76.2992 263.231 76.5946 262.795 76.7918C262.714 76.6613 262.493 76.3023 262.131 75.715C261.769 75.1276 261.306 74.3771 260.743 73.4635C260.179 72.5498 259.556 71.5383 258.872 70.4289C258.18 69.3064 257.464 68.1447 256.723 66.9439C255.996 65.7351 255.278 64.5563 254.57 63.4078C253.693 61.9851 252.818 60.5794 251.944 59.1909C251.061 57.7893 250.237 56.4962 249.471 55.3115C248.696 54.1137 248.038 53.1328 247.494 52.3688C247.756 52.2079 248.162 51.9755 248.713 51.6717C249.264 51.3679 249.872 51.0384 250.535 50.6833C251.212 50.3201 251.877 49.982 252.531 49.6691C253.177 49.3431 253.735 49.08 254.206 48.8797C255.811 49.5835 257.399 50.3336 258.971 51.1299C260.547 51.9051 262.086 52.7216 263.588 53.5792C265.094 54.4157 266.555 55.2804 267.97 56.1733C269.398 57.0581 270.769 57.9515 272.081 58.8535L261.828 44.0186C262.219 43.7772 262.708 43.5031 263.293 43.1962C263.892 42.8813 264.507 42.5649 265.14 42.2469C265.785 41.921 266.387 41.6402 266.944 41.4047C267.514 41.1611 267.954 40.998 268.264 40.9154C268.649 41.4525 269.086 42.0745 269.576 42.7812C270.071 43.4669 270.589 44.2194 271.13 45.0386C271.663 45.8448 272.216 46.6837 272.789 47.5551C273.355 48.4135 273.917 49.2825 274.478 50.162C275.03 51.0284 275.555 51.8663 276.054 52.6755C276.867 53.9938 277.652 55.3111 278.41 56.6274C279.172 57.9226 279.863 59.145 280.481 60.2947C281.105 61.4233 281.618 62.3862 282.019 63.1835C282.413 63.9677 282.647 64.5079 282.721 64.8042C282.364 65.0425 281.98 65.297 281.571 65.5675C281.166 65.817 280.755 66.0705 280.337 66.328C279.724 66.7062 279.115 67.0633 278.512 67.3993C277.921 67.7272 277.41 67.9793 276.978 68.1554C276.703 68.0009 276.236 67.7397 275.577 67.3715C274.922 66.9823 274.124 66.5199 273.181 65.9842C272.23 65.4355 271.196 64.8392 270.079 64.1952C268.961 63.5512 267.818 62.8957 266.651 62.2286C265.475 61.5485 264.322 60.8905 263.191 60.2546C262.06 59.6186 261.024 59.0328 260.081 58.4972C260.346 58.8385 260.727 59.3691 261.225 60.0889C261.722 60.8088 262.286 61.6501 262.916 62.6129C263.558 63.5677 264.219 64.5656 264.897 65.6068C265.566 66.6348 266.224 67.6434 266.87 68.6323C267.508 69.6081 268.078 70.4902 268.582 71.2783C269.078 72.0534 269.455 72.6498 269.712 73.0674ZM299.334 56.0212C296.606 57.7029 294.012 58.4916 291.552 58.3871C289.105 58.2746 286.847 57.4603 284.777 55.9441C282.721 54.4199 280.912 52.3918 279.351 49.8597C277.741 47.2492 276.77 44.6508 276.436 42.0645C276.116 39.47 276.469 37.0634 277.497 34.8446C278.53 32.6047 280.293 30.7163 282.786 29.1793C284.861 27.8999 286.856 27.1474 288.77 26.9218C290.685 26.6962 292.49 26.9072 294.186 27.5547C295.896 28.1942 297.471 29.1864 298.912 30.5313C300.354 31.8762 301.654 33.4884 302.813 35.3679C303.899 37.1299 304.709 38.9545 305.242 40.8416C305.788 42.7206 305.971 44.5803 305.79 46.4207C305.623 48.2531 305.021 49.9934 303.983 51.6417C302.959 53.2819 301.409 54.7417 299.334 56.0212ZM295.53 49.7199C296.862 48.8991 297.746 47.8497 298.183 46.5716C298.633 45.2854 298.717 43.9182 298.437 42.4699C298.149 41.0086 297.59 39.6057 296.761 38.2613C296.15 37.2694 295.464 36.3769 294.705 35.584C293.938 34.7779 293.118 34.1488 292.245 33.6965C291.371 33.2441 290.44 33.0344 289.452 33.0674C288.464 33.1003 287.434 33.4467 286.364 34.1066C285.15 34.8549 284.331 35.8641 283.907 37.1342C283.483 38.4043 283.412 39.8081 283.694 41.3458C283.98 42.8624 284.594 44.3843 285.536 45.9114C286.373 47.2688 287.305 48.3871 288.334 49.2662C289.367 50.1242 290.485 50.6236 291.689 50.7642C292.905 50.8968 294.186 50.5487 295.53 49.7199ZM314.274 45.4327C313.654 44.4277 312.884 43.1641 311.964 41.642C311.043 40.1199 310.045 38.4567 308.969 36.6525C307.884 34.8352 306.782 32.9747 305.663 31.0711C304.543 29.1674 303.47 27.325 302.444 25.5438C301.418 23.7626 300.514 22.1496 299.731 20.7047C300.318 20.2532 301.023 19.7464 301.847 19.1842C302.684 18.6139 303.51 18.0688 304.324 17.5488C305.144 17.0077 305.84 16.5601 306.415 16.2061C306.981 15.8389 307.297 15.6353 307.362 15.595C307.42 15.6311 307.705 15.8881 308.215 16.3658C308.739 16.8355 309.407 17.4507 310.218 18.2115C311.042 18.9642 311.942 19.7962 312.919 20.7075C313.895 21.6188 314.883 22.5497 315.883 23.5002C316.897 24.4426 317.854 25.3384 318.756 26.1874C319.65 27.0235 320.407 27.7547 321.027 28.381C321.66 28.9992 322.087 29.4293 322.309 29.6712L321.645 30.2157C321.55 29.7698 321.375 29.0487 321.121 28.0524C320.868 27.0561 320.566 25.9092 320.216 24.6117C319.871 23.293 319.495 21.9222 319.086 20.4991C318.682 19.0549 318.289 17.6579 317.907 16.3082C317.525 14.9584 317.174 13.7608 316.854 12.7154C316.539 11.6488 316.288 10.8484 316.103 10.3142C316.651 9.97621 317.358 9.55875 318.222 9.06181C319.1 8.55683 319.992 8.06087 320.898 7.57395C321.805 7.08702 322.578 6.71873 323.216 6.46909C324.202 7.48285 325.322 8.89078 326.577 10.6929C327.824 12.4819 329.087 14.4141 330.367 16.4894C331.397 18.1601 332.417 19.8729 333.427 21.628C334.442 23.362 335.373 25.0036 336.22 26.5529C337.067 28.1022 337.762 29.4206 338.307 30.508C337.667 30.9023 336.967 31.3157 336.207 31.7483C335.447 32.1809 334.716 32.5868 334.013 32.9661C333.315 33.3242 332.762 33.611 332.355 33.8263C331.897 32.9377 331.284 31.8116 330.515 30.4481C329.76 29.0765 328.963 27.6673 328.125 26.2205C327.625 25.3218 327.108 24.4247 326.574 23.5291C326.053 22.6255 325.573 21.8042 325.136 21.0652C324.711 20.3182 324.381 19.7384 324.144 19.3257C324.315 19.9232 324.523 20.7136 324.769 21.6969C325.02 22.659 325.284 23.7301 325.561 24.9102C325.851 26.0822 326.13 27.2794 326.397 28.5017C326.669 29.7028 326.92 30.8543 327.149 31.9561C327.391 33.0498 327.589 33.9994 327.743 34.8049C327.911 35.6024 328.01 36.1719 328.04 36.5134C327.865 36.6391 327.593 36.8251 327.222 37.0716C326.857 37.2969 326.576 37.4699 326.38 37.5906C326.028 37.8078 325.654 38.0201 325.26 38.2273C324.87 38.4135 324.437 38.6173 323.962 38.8387C323.818 38.6931 323.516 38.393 323.055 37.9383C322.608 37.4756 322.045 36.913 321.366 36.2506C320.688 35.5882 319.945 34.866 319.139 34.0842C318.338 33.2812 317.522 32.4692 316.691 31.6482C315.853 30.8141 315.035 30.0127 314.236 29.2439C313.438 28.4751 312.712 27.779 312.057 27.1557C311.416 26.5244 310.889 26.0206 310.477 25.6442C311.255 26.8761 312.074 28.1904 312.935 29.587C313.809 30.9755 314.66 32.342 315.489 33.6863C316.318 35.0307 317.082 36.2707 317.783 37.4062C318.488 38.5207 319.069 39.4499 319.528 40.1938C319.987 40.9378 320.264 41.3881 320.361 41.5448C319.912 41.8394 319.343 42.2171 318.655 42.6777C317.958 43.1253 317.229 43.593 316.467 44.0808C315.696 44.5556 314.966 45.0062 314.274 45.4327Z" fill="#2D3941"/>
</g>
<g filter="url(#filter1_d_4004_35)">
<path d="M4.67622 114.812C20.1551 85.127 66.348 31.7418 127.288 55.6827" stroke="#2D3941" stroke-width="4"/>
</g>
<defs>
<filter id="filter0_d_4004_35" x="86.4412" y="4.4292" width="264.039" height="182.641" filterUnits="userSpaceOnUse" color-interpolation-filters="sRGB">
<feFlood flood-opacity="0" result="BackgroundImageFix"/>
<feColorMatrix in="SourceAlpha" type="matrix" values="0 0 0 0 0 0 0 0 0 0 0 0 0 0 0 0 0 0 127 0" result="hardAlpha"/>
<feOffset dx="7" dy="6"/>
<feGaussianBlur stdDeviation="2"/>
<feComposite in2="hardAlpha" operator="out"/>
<feColorMatrix type="matrix" values="0 0 0 0 0 0 0 0 0 0 0 0 0 0 0 0 0 0 0.25 0"/>
<feBlend mode="normal" in2="BackgroundImageFix" result="effect1_dropShadow_4004_35"/>
<feBlend mode="normal" in="SourceGraphic" in2="effect1_dropShadow_4004_35" result="shape"/>
</filter>
<filter id="filter1_d_4004_35" x="2.90283" y="47.6755" width="136.117" height="78.0613" filterUnits="userSpaceOnUse" color-interpolation-filters="sRGB">
<feFlood flood-opacity="0" result="BackgroundImageFix"/>
<feColorMatrix in="SourceAlpha" type="matrix" values="0 0 0 0 0 0 0 0 0 0 0 0 0 0 0 0 0 0 127 0" result="hardAlpha"/>
<feOffset dx="7" dy="6"/>
<feGaussianBlur stdDeviation="2"/>
<feComposite in2="hardAlpha" operator="out"/>
<feColorMatrix type="matrix" values="0 0 0 0 0 0 0 0 0 0 0 0 0 0 0 0 0 0 0.25 0"/>
<feBlend mode="normal" in2="BackgroundImageFix" result="effect1_dropShadow_4004_35"/>
<feBlend mode="normal" in="SourceGraphic" in2="effect1_dropShadow_4004_35" result="shape"/>
</filter>
</defs>
</svg>
