<svg width="287" height="264" viewBox="0 0 287 264" fill="none" xmlns="http://www.w3.org/2000/svg">
<g filter="url(#filter0_d_4004_6)">
<path d="M21.5996 162.694C21.6331 161.889 21.674 160.998 21.7223 160.02C21.7849 159.046 21.8457 158.056 21.9046 157.049C21.9831 156.033 22.0655 155.05 22.1517 154.102C22.2523 153.159 22.3409 152.293 22.4175 151.505C22.5086 150.722 22.6052 150.079 22.7073 149.578L23.5675 149.771C23.436 149.951 23.1791 150.273 22.7967 150.737C22.4196 151.187 21.967 151.732 21.4388 152.371C20.9105 153.01 20.335 153.689 19.7123 154.408C19.1092 155.118 18.4944 155.816 17.8678 156.5C17.2556 157.191 16.6789 157.828 16.1377 158.414C15.6162 158.99 15.1729 159.465 14.8078 159.837L7.27375 156.733C7.56627 155.534 7.93336 154.109 8.37503 152.458C8.83638 150.798 9.35576 148.98 9.93318 147.003C10.5159 145.012 11.1499 142.926 11.8353 140.743C12.5206 138.561 13.2487 136.33 14.0194 134.048C14.7902 131.767 15.5844 129.51 16.4022 127.279L23.8146 130.314C23.3661 131.537 22.8452 132.914 22.2519 134.444C21.6638 135.96 21.0501 137.523 20.4107 139.134C19.791 140.736 19.1845 142.302 18.5912 143.832C17.9978 145.362 17.4546 146.755 16.9615 148.011C16.4828 149.273 16.1003 150.317 15.814 151.143L15.2828 151.389C15.5995 151.015 16.0101 150.496 16.5148 149.832C17.0392 149.158 17.6142 148.414 18.2398 147.598C18.8707 146.767 19.5122 145.908 20.1641 145.021C20.8161 144.133 21.4386 143.258 22.0316 142.398C22.6246 141.537 23.1472 140.757 23.5996 140.058C24.0573 139.343 24.3876 138.754 24.5905 138.29L29.7266 140.049C29.6408 140.328 29.5031 140.882 29.3137 141.711C29.144 142.53 28.9477 143.512 28.7247 144.655C28.5162 145.803 28.3009 147.014 28.079 148.289C27.8623 149.548 27.649 150.776 27.439 151.973C27.2487 153.161 27.0888 154.221 26.9594 155.153C26.8497 156.077 26.7982 156.752 26.805 157.179L25.8311 156.896C26.6533 155.499 27.5372 153.822 28.4827 151.866C29.4426 149.915 30.3955 147.872 31.3414 145.736C32.2873 143.601 33.1531 141.55 33.9388 139.584C34.7442 137.61 35.4028 135.924 35.9145 134.527L42.9704 136.329C42.0523 138.834 41.0177 141.346 39.8664 143.863C38.7152 146.381 37.538 148.791 36.3349 151.094C35.1318 153.396 33.998 155.487 32.9335 157.367C31.869 159.247 30.952 160.814 30.1825 162.067C29.4183 163.305 28.904 164.129 28.6397 164.539L21.5996 162.694ZM50.9584 173.404C49.5791 172.8 48.2143 172.202 46.8638 171.609C45.5081 171.031 44.1255 170.459 42.716 169.893C41.5854 169.414 40.4331 168.926 39.2593 168.43C38.0907 167.921 36.9339 167.423 35.7888 166.938C36.5744 164.483 37.3624 162.109 38.1529 159.819C38.963 157.519 39.7347 155.369 40.4681 153.368C41.6446 150.157 42.6732 147.439 43.5539 145.215C44.4345 142.99 45.083 141.398 45.4994 140.44C48.4051 140.934 51.0591 141.49 53.4615 142.109C55.8691 142.714 57.8609 143.272 59.4369 143.784C61.0272 144.302 62.0168 144.632 62.4055 144.774C62.0626 145.71 61.6961 146.621 61.3061 147.507C60.9214 148.378 60.5039 149.295 60.0534 150.257L50.5335 147.625C50.4506 147.807 50.328 148.097 50.1659 148.495C50.009 148.878 49.8363 149.305 49.6478 149.775C49.479 150.236 49.3207 150.668 49.173 151.071C49.0253 151.474 48.9171 151.769 48.8485 151.956C49.1796 152.077 49.6044 152.233 50.1226 152.423C50.6606 152.604 51.2418 152.8 51.8661 153.013C52.5049 153.231 53.1436 153.448 53.7824 153.666C54.4211 153.884 55.014 154.093 55.5611 154.294C56.1279 154.485 56.6082 154.645 57.0022 154.773L54.7474 160.658C54.5602 160.59 54.1957 160.448 53.6539 160.233C53.1174 160.004 52.4945 159.743 51.7852 159.45C51.0903 159.163 50.3855 158.88 49.671 158.602C48.9617 158.309 48.3361 158.056 47.7943 157.841C47.2525 157.626 46.8782 157.489 46.6713 157.429C46.6042 157.568 46.5001 157.807 46.3591 158.148C46.2377 158.479 46.0907 158.858 45.918 159.284C45.765 159.702 45.6041 160.141 45.4353 160.602C45.2717 161.048 45.1115 161.463 44.9546 161.846C44.8175 162.22 44.7067 162.523 44.6223 162.753C44.8094 162.822 45.3133 163.006 46.1339 163.307C46.9598 163.593 47.8047 163.895 48.6685 164.212C49.3884 164.475 50.103 164.754 50.8123 165.046C51.5216 165.339 52.1778 165.62 52.7811 165.89C53.3896 166.146 53.8829 166.359 54.2611 166.53C54.0501 167.106 53.7786 167.758 53.4466 168.486C53.12 169.199 52.7887 169.902 52.4529 170.596C52.1315 171.294 51.8274 171.901 51.5405 172.417C51.2733 172.923 51.0793 173.252 50.9584 173.404ZM56.3916 174.489C56.725 173.713 57.1613 172.656 57.7004 171.318C58.2448 169.966 58.8427 168.446 59.4941 166.758C60.1507 165.055 60.8114 163.297 61.4762 161.483C62.141 159.669 62.7835 157.871 63.4036 156.09C64.0291 154.294 64.5972 152.632 65.108 151.105C65.6188 149.577 66.0399 148.295 66.3713 147.257C66.8099 147.352 67.4887 147.527 68.4077 147.782C69.3267 148.037 70.2685 148.342 71.2331 148.695C71.6938 148.864 72.2284 149.076 72.837 149.332C73.4455 149.588 73.8498 149.777 74.0499 149.899C73.8044 150.658 73.4633 151.611 73.0269 152.758C72.6048 153.909 72.111 155.19 71.5454 156.599C70.9943 158.014 70.3971 159.51 69.7539 161.087C69.116 162.65 68.4682 164.217 67.8105 165.788C67.4561 166.622 67.1023 167.431 66.7493 168.216C66.4159 168.992 66.1175 169.651 65.8542 170.191C67.0179 170.536 68.162 170.89 69.2864 171.253C70.4108 171.616 71.5325 171.986 72.6517 172.364C73.7852 172.746 74.9134 173.144 76.0364 173.555C75.9568 173.951 75.7909 174.559 75.5386 175.381C75.2863 176.203 75.0058 177.08 74.6969 178.012C74.3933 178.93 74.1175 179.727 73.8695 180.404C72.0575 180.001 70.2449 179.533 68.4319 178.999C66.6385 178.456 64.9473 177.902 63.3584 177.336C62.043 176.87 60.7813 176.391 59.5734 175.899C58.3852 175.399 57.3246 174.928 56.3916 174.489ZM90.6524 187.558C90.8126 186.899 91.079 185.927 91.4516 184.642C91.8295 183.344 92.2859 181.853 92.8206 180.171C93.3607 178.475 93.9297 176.699 94.5278 174.845C95.1455 172.981 95.7599 171.148 96.371 169.347C96.9964 167.551 97.5861 165.898 98.1401 164.386C98.5094 163.378 98.849 162.474 99.1589 161.673C99.4884 160.863 99.775 160.192 100.019 159.661C100.168 159.699 100.521 159.804 101.079 159.976C101.656 160.138 102.317 160.34 103.062 160.58C103.807 160.82 104.528 161.06 105.224 161.299C105.94 161.529 106.514 161.723 106.946 161.881C106.637 162.633 106.306 163.492 105.953 164.457C105.599 165.421 105.264 166.335 104.948 167.199C104.552 168.279 104.158 169.4 103.764 170.562C103.376 171.71 103.11 172.527 102.964 173.013C103.292 173.1 103.655 173.2 104.054 173.314C104.473 173.419 104.901 173.543 105.338 173.687C105.781 173.816 106.213 173.95 106.636 174.089C107.059 174.227 107.453 174.355 107.818 174.473C108.198 174.596 108.517 174.705 108.776 174.8C108.96 174.344 109.229 173.675 109.585 172.793C109.946 171.897 110.342 170.907 110.771 169.823C111.207 168.725 111.631 167.656 112.045 166.616C112.464 165.561 112.833 164.667 113.15 163.934C113.492 164.027 113.9 164.16 114.375 164.334C114.856 164.494 115.319 164.655 115.765 164.819C116.672 165.151 117.524 165.48 118.319 165.804C119.129 166.134 119.733 166.404 120.129 166.614C119.924 166.996 119.635 167.584 119.262 168.379C118.904 169.178 118.485 170.119 118.007 171.201C117.543 172.289 117.043 173.477 116.505 174.766C115.972 176.041 115.424 177.358 114.86 178.719C114.316 180.071 113.777 181.409 113.243 182.732C112.621 184.251 112.016 185.744 111.43 187.211C110.863 188.669 110.346 189.991 109.879 191.175C109.427 192.365 109.061 193.317 108.783 194.031C108.456 193.944 107.942 193.788 107.24 193.564C106.553 193.345 105.786 193.096 104.941 192.819C104.1 192.528 103.277 192.234 102.471 191.939C102.835 190.945 103.189 189.956 103.534 188.972C103.892 187.993 104.243 187.036 104.586 186.1C104.934 185.15 105.269 184.235 105.591 183.357C105.918 182.465 106.23 181.615 106.525 180.809C106.232 180.718 105.895 180.611 105.516 180.488C105.142 180.351 104.75 180.216 104.342 180.082C103.953 179.94 103.555 179.802 103.146 179.669C102.743 179.521 102.359 179.388 101.994 179.271C101.648 179.144 101.346 179.033 101.087 178.938C100.85 179.717 100.553 180.662 100.195 181.772C99.8428 182.867 99.4876 183.97 99.1299 185.08C98.7721 186.19 98.4519 187.175 98.1694 188.035C97.9066 188.886 97.7224 189.455 97.6169 189.743C97.2647 189.68 96.7711 189.556 96.1362 189.372C95.521 189.179 94.8554 188.968 94.1394 188.738C93.4378 188.514 92.7676 188.293 92.1288 188.075C91.5045 187.863 91.0123 187.69 90.6524 187.558ZM129.284 202.108C127.905 201.504 126.54 200.906 125.19 200.313C123.834 199.735 122.451 199.163 121.042 198.597C119.911 198.118 118.759 197.63 117.585 197.135C116.417 196.625 115.26 196.127 114.115 195.642C114.9 193.187 115.688 190.814 116.479 188.523C117.289 186.223 118.061 184.073 118.794 182.072C119.971 178.861 120.999 176.143 121.88 173.919C122.761 171.694 123.409 170.102 123.825 169.145C126.731 169.638 129.385 170.194 131.787 170.813C134.195 171.418 136.187 171.976 137.763 172.488C139.353 173.006 140.343 173.336 140.731 173.478C140.389 174.414 140.022 175.325 139.632 176.211C139.247 177.083 138.83 177.999 138.379 178.961L128.86 176.329C128.777 176.511 128.654 176.801 128.492 177.199C128.335 177.583 128.162 178.009 127.974 178.479C127.805 178.94 127.647 179.372 127.499 179.775C127.351 180.178 127.243 180.473 127.174 180.66C127.506 180.781 127.93 180.937 128.449 181.127C128.987 181.308 129.568 181.505 130.192 181.717C130.831 181.935 131.47 182.152 132.108 182.37C132.747 182.588 133.34 182.797 133.887 182.998C134.454 183.189 134.934 183.349 135.328 183.477L133.073 189.362C132.886 189.294 132.522 189.152 131.98 188.937C131.443 188.708 130.82 188.447 130.111 188.154C129.416 187.867 128.712 187.584 127.997 187.306C127.288 187.013 126.662 186.76 126.12 186.545C125.578 186.33 125.204 186.193 124.997 186.133C124.93 186.272 124.826 186.511 124.685 186.852C124.564 187.183 124.417 187.562 124.244 187.988C124.091 188.406 123.93 188.845 123.761 189.306C123.598 189.752 123.437 190.167 123.281 190.55C123.143 190.925 123.033 191.227 122.948 191.457C123.135 191.526 123.639 191.71 124.46 192.011C125.286 192.298 126.131 192.599 126.995 192.916C127.714 193.179 128.429 193.458 129.138 193.75C129.848 194.043 130.504 194.324 131.107 194.594C131.716 194.85 132.209 195.063 132.587 195.235C132.376 195.81 132.105 196.462 131.773 197.19C131.446 197.903 131.115 198.606 130.779 199.3C130.458 199.998 130.153 200.605 129.867 201.121C129.599 201.627 129.405 201.956 129.284 202.108ZM134.718 203.193C135.051 202.417 135.487 201.36 136.026 200.022C136.571 198.67 137.169 197.15 137.82 195.462C138.477 193.759 139.137 192.001 139.802 190.187C140.467 188.373 141.109 186.575 141.73 184.794C142.355 182.998 142.923 181.336 143.434 179.809C143.945 178.281 144.366 176.999 144.697 175.961C145.136 176.056 145.815 176.231 146.734 176.486C147.653 176.742 148.595 177.046 149.559 177.399C150.02 177.568 150.554 177.78 151.163 178.036C151.771 178.292 152.176 178.481 152.376 178.603C152.13 179.362 151.789 180.315 151.353 181.462C150.931 182.613 150.437 183.894 149.871 185.303C149.32 186.718 148.723 188.214 148.08 189.791C147.442 191.354 146.794 192.921 146.137 194.492C145.782 195.326 145.428 196.135 145.075 196.921C144.742 197.697 144.443 198.355 144.18 198.895C145.344 199.24 146.488 199.594 147.612 199.957C148.737 200.32 149.859 200.69 150.978 201.068C152.111 201.45 153.239 201.848 154.362 202.259C154.283 202.655 154.117 203.263 153.865 204.085C153.612 204.907 153.332 205.784 153.023 206.716C152.719 207.634 152.443 208.431 152.196 209.108C150.383 208.705 148.571 208.237 146.758 207.703C144.964 207.16 143.273 206.606 141.684 206.04C140.369 205.574 139.107 205.095 137.899 204.604C136.711 204.103 135.651 203.632 134.718 203.193ZM167.099 216.897C164.09 215.794 161.866 214.244 160.426 212.246C159 210.254 158.243 207.976 158.154 205.412C158.079 202.854 158.553 200.178 159.577 197.385C160.632 194.505 162.072 192.134 163.898 190.272C165.738 188.415 167.847 187.204 170.226 186.639C172.625 186.065 175.199 186.281 177.949 187.289C180.238 188.128 182.064 189.23 183.425 190.594C184.787 191.959 185.738 193.508 186.279 195.241C186.834 196.979 187.029 198.831 186.864 200.795C186.7 202.76 186.237 204.779 185.478 206.852C184.765 208.796 183.833 210.561 182.68 212.147C181.541 213.738 180.193 215.032 178.636 216.029C177.093 217.032 175.353 217.635 173.416 217.84C171.494 218.05 169.388 217.735 167.099 216.897ZM169.696 210.01C171.165 210.548 172.536 210.593 173.811 210.146C175.1 209.704 176.226 208.924 177.191 207.808C178.16 206.677 178.917 205.37 179.46 203.888C179.861 202.793 180.138 201.703 180.292 200.616C180.45 199.515 180.437 198.481 180.252 197.515C180.067 196.549 179.656 195.688 179.019 194.932C178.381 194.176 177.472 193.581 176.292 193.149C174.953 192.658 173.653 192.639 172.393 193.092C171.133 193.544 169.986 194.357 168.952 195.53C167.938 196.693 167.122 198.117 166.505 199.801C165.956 201.299 165.655 202.723 165.6 204.075C165.566 205.418 165.865 206.605 166.499 207.638C167.148 208.676 168.213 209.466 169.696 210.01ZM199.033 228.134C199.194 227.425 199.45 226.417 199.799 225.108C200.168 223.789 200.581 222.283 201.038 220.589C201.501 218.881 201.99 217.1 202.506 215.248C203.026 213.381 203.539 211.536 204.044 209.712C204.549 207.889 205.019 206.207 205.452 204.668C205.905 203.119 206.281 201.804 206.58 200.721C206.899 199.629 207.109 198.898 207.212 198.528C207.829 198.672 208.614 198.87 209.567 199.121C210.52 199.372 211.533 199.662 212.605 199.989C213.682 200.302 214.681 200.628 215.603 200.965C218.252 201.936 220.39 203.054 222.016 204.32C223.648 205.571 224.801 207.015 225.476 208.65C226.155 210.271 226.404 212.109 226.222 214.166C226.04 216.222 225.482 218.524 224.549 221.072C223.467 224.024 222.185 226.297 220.702 227.893C219.238 229.48 217.486 230.495 215.445 230.94C213.424 231.375 211.066 231.327 208.37 230.796C205.683 230.285 202.571 229.398 199.033 228.134ZM208.109 223.352C209.844 223.922 211.298 224.12 212.472 223.947C213.661 223.778 214.639 223.271 215.406 222.425C216.193 221.57 216.85 220.423 217.377 218.983C217.968 217.371 218.323 215.778 218.443 214.205C218.576 212.637 218.343 211.245 217.744 210.03C217.159 208.819 216.081 207.926 214.512 207.351C214.253 207.256 213.972 207.153 213.67 207.042C213.382 206.937 213.117 206.856 212.877 206.801C212.417 208.412 211.896 210.189 211.315 212.132C210.753 214.065 210.196 216.009 209.644 217.962C209.097 219.901 208.585 221.697 208.109 223.352ZM239.076 242.343C237.696 241.739 236.332 241.141 234.981 240.548C233.625 239.97 232.243 239.398 230.833 238.832C229.703 238.353 228.55 237.865 227.377 237.37C226.208 236.86 225.051 236.362 223.906 235.877C224.692 233.422 225.48 231.049 226.27 228.758C227.08 226.458 227.852 224.308 228.585 222.307C229.762 219.096 230.791 216.379 231.671 214.154C232.552 211.929 233.2 210.338 233.617 209.38C236.522 209.873 239.176 210.429 241.579 211.048C243.986 211.653 245.978 212.211 247.554 212.724C249.145 213.241 250.134 213.571 250.523 213.714C250.18 214.649 249.813 215.56 249.423 216.446C249.039 217.318 248.621 218.234 248.171 219.196L238.651 216.565C238.568 216.747 238.445 217.036 238.283 217.434C238.126 217.818 237.954 218.244 237.765 218.714C237.596 219.175 237.438 219.607 237.29 220.01C237.143 220.413 237.034 220.708 236.966 220.895C237.297 221.017 237.722 221.172 238.24 221.362C238.778 221.543 239.359 221.74 239.983 221.952C240.622 222.17 241.261 222.388 241.9 222.605C242.538 222.823 243.131 223.032 243.678 223.233C244.245 223.424 244.726 223.584 245.12 223.712L242.865 229.597C242.678 229.529 242.313 229.387 241.771 229.172C241.235 228.943 240.612 228.682 239.903 228.389C239.208 228.102 238.503 227.819 237.788 227.541C237.079 227.248 236.453 226.995 235.912 226.78C235.37 226.565 234.996 226.428 234.789 226.368C234.722 226.507 234.617 226.746 234.476 227.087C234.355 227.418 234.208 227.797 234.035 228.223C233.882 228.641 233.721 229.08 233.553 229.541C233.389 229.987 233.229 230.402 233.072 230.785C232.935 231.16 232.824 231.462 232.74 231.692C232.927 231.761 233.431 231.946 234.251 232.246C235.077 232.533 235.922 232.834 236.786 233.151C237.506 233.415 238.22 233.693 238.93 233.985C239.639 234.278 240.295 234.559 240.898 234.829C241.507 235.085 242 235.298 242.378 235.47C242.167 236.046 241.896 236.697 241.564 237.425C241.237 238.138 240.906 238.841 240.57 239.535C240.249 240.233 239.945 240.841 239.658 241.356C239.391 241.862 239.197 242.191 239.076 242.343ZM244.834 244.747C245.338 243.103 245.953 241.091 246.678 238.711C247.423 236.322 248.212 233.77 249.044 231.053C249.896 228.328 250.739 225.624 251.575 222.942C252.417 220.246 253.19 217.778 253.897 215.538C254.479 215.686 255.22 215.892 256.12 216.157C257.019 216.421 257.99 216.711 259.034 217.028C260.077 217.345 261.096 217.662 262.091 217.977C263.086 218.293 263.965 218.591 264.728 218.87C265.836 219.276 266.905 219.791 267.935 220.413C268.984 221.026 269.874 221.761 270.605 222.616C271.351 223.478 271.828 224.494 272.036 225.664C272.25 226.82 272.079 228.154 271.525 229.665C270.982 231.148 270.088 232.405 268.845 233.435C267.617 234.471 266.268 235.055 264.799 235.186C264.903 235.926 264.996 236.81 265.077 237.836C265.158 238.861 265.216 239.952 265.25 241.108C265.298 242.269 265.327 243.414 265.337 244.545C265.353 245.661 265.354 246.682 265.342 247.608C265.343 248.54 265.321 249.291 265.275 249.862C264.763 249.968 264.111 250.007 263.321 249.979C262.546 249.956 261.757 249.904 260.954 249.822C260.156 249.725 259.463 249.635 258.874 249.549C258.299 249.469 257.954 249.408 257.839 249.366C257.935 248.748 258.032 247.926 258.13 246.901C258.228 245.875 258.319 244.757 258.403 243.547C258.488 242.337 258.557 241.145 258.611 239.973C258.684 238.792 258.738 237.733 258.77 236.798C258.803 235.863 258.813 235.164 258.803 234.703C258.445 234.654 258.083 234.595 257.717 234.526C257.364 234.462 257.032 234.389 256.719 234.307C256.42 234.23 256.146 234.154 255.896 234.079C255.832 234.431 255.689 234.999 255.467 235.784C255.265 236.559 255.018 237.456 254.726 238.476C254.434 239.496 254.124 240.542 253.796 241.614C253.488 242.677 253.187 243.677 252.893 244.614C252.613 245.556 252.372 246.325 252.17 246.921C251.546 246.84 250.807 246.675 249.95 246.426C249.103 246.197 248.231 245.927 247.333 245.614C246.444 245.321 245.611 245.032 244.834 244.747ZM257.212 228.682C257.659 228.846 258.117 228.998 258.589 229.138C259.08 229.269 259.67 229.395 260.36 229.518C261.354 229.702 262.182 229.761 262.844 229.693C263.511 229.611 264.046 229.398 264.449 229.056C264.871 228.705 265.191 228.234 265.407 227.644C265.697 226.852 265.726 226.217 265.493 225.74C265.265 225.248 264.852 224.836 264.256 224.503C263.674 224.175 262.965 223.858 262.13 223.552C261.9 223.468 261.621 223.382 261.293 223.295C260.971 223.193 260.647 223.099 260.32 223.011C259.992 222.924 259.694 222.847 259.424 222.781C259.16 222.701 258.967 222.646 258.847 222.619C258.771 222.869 258.682 223.203 258.577 223.622C258.472 224.041 258.352 224.503 258.216 225.008C258.085 225.499 257.947 225.988 257.802 226.473C257.676 226.95 257.556 227.388 257.443 227.787C257.349 228.177 257.272 228.476 257.212 228.682Z" fill="white"/>
</g>
<g filter="url(#filter1_d_4004_6)">
<path d="M127.857 111.27C125.511 77.874 104.462 10.4894 39.0307 8.12013" stroke="white" stroke-width="4"/>
</g>
<defs>
<filter id="filter0_d_4004_6" x="5.29089" y="126.674" width="281.344" height="135.844" filterUnits="userSpaceOnUse" color-interpolation-filters="sRGB">
<feFlood flood-opacity="0" result="BackgroundImageFix"/>
<feColorMatrix in="SourceAlpha" type="matrix" values="0 0 0 0 0 0 0 0 0 0 0 0 0 0 0 0 0 0 127 0" result="hardAlpha"/>
<feOffset dx="7" dy="6"/>
<feGaussianBlur stdDeviation="2"/>
<feComposite in2="hardAlpha" operator="out"/>
<feColorMatrix type="matrix" values="0 0 0 0 0 0 0 0 0 0 0 0 0 0 0 0 0 0 0.25 0"/>
<feBlend mode="normal" in2="BackgroundImageFix" result="effect1_dropShadow_4004_6"/>
<feBlend mode="normal" in="SourceGraphic" in2="effect1_dropShadow_4004_6" result="shape"/>
</filter>
<filter id="filter1_d_4004_6" x="38.9584" y="6.12134" width="101.893" height="115.289" filterUnits="userSpaceOnUse" color-interpolation-filters="sRGB">
<feFlood flood-opacity="0" result="BackgroundImageFix"/>
<feColorMatrix in="SourceAlpha" type="matrix" values="0 0 0 0 0 0 0 0 0 0 0 0 0 0 0 0 0 0 127 0" result="hardAlpha"/>
<feOffset dx="7" dy="6"/>
<feGaussianBlur stdDeviation="2"/>
<feComposite in2="hardAlpha" operator="out"/>
<feColorMatrix type="matrix" values="0 0 0 0 0 0 0 0 0 0 0 0 0 0 0 0 0 0 0.25 0"/>
<feBlend mode="normal" in2="BackgroundImageFix" result="effect1_dropShadow_4004_6"/>
<feBlend mode="normal" in="SourceGraphic" in2="effect1_dropShadow_4004_6" result="shape"/>
</filter>
</defs>
</svg>
