<svg width="291" height="170" viewBox="0 0 291 170" fill="none" xmlns="http://www.w3.org/2000/svg">
<g filter="url(#filter0_d_4002_3)">
<path d="M148.008 157.742C147.477 157.32 146.707 156.669 145.698 155.791C144.679 154.902 143.519 153.861 142.218 152.668C140.906 151.465 139.535 150.202 138.103 148.879C136.672 147.534 135.268 146.206 133.891 144.894C132.525 143.571 131.273 142.341 130.134 141.202C129.375 140.443 128.698 139.755 128.101 139.137C127.505 138.497 127.017 137.955 126.638 137.511C126.735 137.391 126.979 137.115 127.37 136.681C127.76 136.226 128.221 135.711 128.752 135.136C129.283 134.562 129.804 134.009 130.313 133.477C130.823 132.924 131.24 132.485 131.565 132.16C132.118 132.756 132.758 133.418 133.485 134.144C134.211 134.871 134.899 135.559 135.55 136.21C136.363 137.023 137.214 137.852 138.103 138.698C138.982 139.533 139.61 140.118 139.99 140.454C140.207 140.194 140.451 139.907 140.722 139.592C140.993 139.256 141.286 138.92 141.6 138.584C141.904 138.237 142.207 137.901 142.511 137.576C142.814 137.25 143.096 136.947 143.356 136.665C143.628 136.372 143.861 136.128 144.056 135.933C143.72 135.575 143.226 135.049 142.576 134.356C141.914 133.651 141.183 132.876 140.38 132.03C139.567 131.173 138.776 130.338 138.006 129.525C137.225 128.701 136.569 127.991 136.038 127.395C136.266 127.124 136.558 126.809 136.916 126.451C137.263 126.083 137.605 125.73 137.941 125.394C138.624 124.711 139.28 124.077 139.909 123.492C140.548 122.895 141.047 122.462 141.405 122.19C141.665 122.537 142.077 123.047 142.641 123.719C143.216 124.381 143.893 125.156 144.674 126.045C145.465 126.923 146.333 127.877 147.276 128.907C148.208 129.926 149.173 130.978 150.171 132.062C151.168 133.125 152.155 134.177 153.131 135.217C154.248 136.421 155.348 137.597 156.432 138.747C157.517 139.874 158.498 140.899 159.376 141.82C160.265 142.731 160.975 143.463 161.507 144.016C161.29 144.276 160.932 144.677 160.433 145.22C159.945 145.751 159.398 146.342 158.791 146.992C158.173 147.632 157.56 148.255 156.953 148.863C156.205 148.114 155.457 147.377 154.708 146.651C153.971 145.913 153.25 145.192 152.545 144.488C151.83 143.772 151.141 143.084 150.48 142.422C149.808 141.75 149.168 141.11 148.561 140.503C148.355 140.731 148.116 140.991 147.845 141.284C147.563 141.566 147.276 141.864 146.983 142.178C146.691 142.471 146.398 142.775 146.105 143.089C145.801 143.393 145.52 143.685 145.259 143.967C144.999 144.227 144.771 144.455 144.576 144.65C145.183 145.192 145.915 145.859 146.772 146.651C147.618 147.431 148.469 148.217 149.325 149.009C150.182 149.8 150.941 150.505 151.602 151.123C152.263 151.719 152.703 152.126 152.919 152.343C152.713 152.636 152.394 153.031 151.96 153.53C151.526 154.007 151.055 154.522 150.545 155.075C150.046 155.617 149.564 156.132 149.097 156.62C148.642 157.097 148.279 157.471 148.008 157.742ZM169.471 136.865C169.199 137.136 168.815 137.499 168.316 137.955C167.828 138.421 167.297 138.92 166.722 139.451C166.169 139.982 165.622 140.497 165.079 140.996C164.548 141.484 164.104 141.885 163.746 142.2C163.193 141.408 162.499 140.389 161.664 139.142C160.84 137.884 159.935 136.48 158.948 134.93C157.961 133.379 156.937 131.758 155.874 130.067C154.801 128.365 153.749 126.663 152.719 124.96C151.689 123.258 150.719 121.637 149.808 120.098C148.897 118.558 148.1 117.176 147.417 115.95C148.371 114.714 149.336 113.522 150.312 112.372C151.288 111.201 152.28 110.112 153.288 109.103C153.863 108.529 154.454 107.97 155.061 107.428C155.668 106.886 156.292 106.371 156.931 105.883C158.092 106.631 159.398 107.515 160.851 108.534C162.304 109.553 163.979 110.795 165.876 112.259C167.774 113.701 169.964 115.446 172.447 117.495C174.93 119.523 177.787 121.924 181.018 124.7C180.703 125.101 180.242 125.66 179.635 126.375C179.028 127.091 178.372 127.823 177.667 128.571C176.984 129.319 176.361 129.975 175.797 130.539C175.461 130.246 175.081 129.91 174.659 129.53C174.247 129.14 173.802 128.728 173.325 128.294C172.848 127.861 172.365 127.422 171.878 126.977C171.4 126.522 170.94 126.082 170.495 125.66C170.051 125.237 169.639 124.846 169.259 124.489C168.923 124.846 168.565 125.237 168.186 125.66C167.795 126.072 167.41 126.5 167.031 126.944C166.652 127.367 166.299 127.774 165.974 128.164C165.638 128.544 165.35 128.885 165.112 129.189C164.873 129.492 164.705 129.715 164.608 129.856C165.182 130.756 165.773 131.65 166.38 132.539C166.988 133.428 167.562 134.252 168.104 135.011C168.636 135.759 169.091 136.377 169.471 136.865ZM160.77 124.684C160.976 124.391 161.317 123.952 161.794 123.367C162.271 122.781 162.781 122.185 163.323 121.578C163.865 120.97 164.31 120.482 164.657 120.114C164.407 119.908 163.952 119.507 163.29 118.91C162.629 118.292 161.903 117.631 161.111 116.926C160.309 116.211 159.571 115.56 158.899 114.975C158.227 114.367 157.755 113.961 157.484 113.755C157.311 113.928 157.062 114.199 156.736 114.568C156.411 114.937 156.097 115.294 155.793 115.641C155.489 115.988 155.283 116.238 155.175 116.389C155.424 116.769 155.771 117.3 156.216 117.983C156.66 118.645 157.159 119.382 157.712 120.195C158.265 121.008 158.807 121.811 159.338 122.602C159.87 123.372 160.347 124.066 160.77 124.684ZM189.478 116.955C189.055 117.378 188.545 117.877 187.949 118.452C187.364 119.015 186.756 119.579 186.128 120.143C185.51 120.696 184.935 121.184 184.404 121.607C183.677 120.924 182.756 120.045 181.639 118.972C180.511 117.888 179.313 116.733 178.045 115.508C176.787 114.272 175.594 113.09 174.467 111.963C172.732 110.228 170.889 108.363 168.937 106.368C166.996 104.362 164.991 102.28 162.92 100.123C163.093 99.9276 163.38 99.6294 163.782 99.2282C164.172 98.8162 164.611 98.3554 165.099 97.8458C165.587 97.3146 166.064 96.8158 166.53 96.3496C166.996 95.8617 167.392 95.4551 167.717 95.1298C168.943 96.2249 170.287 97.4609 171.751 98.8379C173.204 100.204 174.678 101.614 176.174 103.066C177.671 104.519 179.096 105.923 180.452 107.279C181.124 107.951 181.818 108.656 182.533 109.393C183.26 110.119 183.975 110.846 184.68 111.572C185.385 112.299 186.046 113.003 186.664 113.686C187.282 114.37 187.841 114.993 188.339 115.557C188.827 116.11 189.207 116.576 189.478 116.955ZM213.521 93.888C211.396 96.0131 209.13 97.3792 206.723 97.9864C204.327 98.5827 201.893 98.4363 199.421 97.5473C196.938 96.6473 194.52 95.021 192.167 92.6682C189.966 90.4672 188.378 88.1632 187.402 85.7562C186.437 83.3384 186.171 80.9585 186.605 78.6166C187.028 76.2638 188.237 74.0899 190.232 72.0949C191.316 71.0107 192.509 70.1216 193.81 69.4277C195.111 68.7121 196.439 68.2188 197.794 67.9478C199.15 67.6767 200.451 67.6659 201.698 67.9152C201.752 68.3381 201.757 68.994 201.714 69.8831C201.681 70.7613 201.611 71.6992 201.502 72.6967C201.394 73.6942 201.242 74.5941 201.047 75.3964C200.429 75.2772 199.789 75.2338 199.128 75.2663C198.477 75.288 197.827 75.4398 197.176 75.7217C196.526 76.0036 195.886 76.459 195.257 77.0878C194.65 77.695 194.26 78.4214 194.086 79.2671C193.902 80.102 193.918 80.9965 194.135 81.9506C194.352 82.9047 194.758 83.8859 195.355 84.8943C195.951 85.8809 196.716 86.8405 197.648 87.7729C198.895 89.0198 200.185 89.9522 201.519 90.5702C202.841 91.1774 204.143 91.3942 205.422 91.2208C206.69 91.0364 207.883 90.3859 209 89.2692C209.694 88.5752 210.144 87.8542 210.35 87.1061C210.556 86.3363 210.556 85.599 210.35 84.8943C210.144 84.1678 209.775 83.539 209.244 83.0077C209.092 82.8559 208.951 82.7258 208.821 82.6174C208.702 82.4981 208.577 82.3951 208.447 82.3084C208.208 82.4385 207.867 82.6716 207.422 83.0077C206.967 83.333 206.474 83.707 205.942 84.1299C205.411 84.5311 204.912 84.9322 204.446 85.3334C203.969 85.7237 203.584 86.0544 203.291 86.3255C202.988 86.0219 202.608 85.6316 202.153 85.1545C201.687 84.6666 201.231 84.1787 200.787 83.6908C200.342 83.1812 199.99 82.7638 199.73 82.4385C200.51 81.6795 201.513 80.8067 202.738 79.8201C203.953 78.8226 205.205 77.8522 206.495 76.9089C207.796 75.9548 208.951 75.1796 209.959 74.5833C210.469 74.876 211 75.2555 211.553 75.7217C212.095 76.1771 212.572 76.6108 212.984 77.0228C214.557 78.5949 215.706 80.3405 216.432 82.2596C217.159 84.157 217.316 86.114 216.904 88.1307C216.492 90.1257 215.364 92.0448 213.521 93.888ZM232.474 74.3817C230.544 76.3117 228.593 77.3959 226.62 77.6344C224.657 77.8621 222.602 77.4447 220.456 76.3821C218.515 75.4389 216.449 74.0023 214.259 72.0723C212.069 70.1207 209.673 67.8438 207.071 65.2417C206.67 64.8405 206.258 64.4177 205.835 63.9731C205.412 63.5286 204.984 63.0786 204.55 62.6233C204.105 62.157 203.677 61.7071 203.265 61.2734C202.864 60.8289 202.49 60.4223 202.143 60.0536C202.533 59.5549 202.945 59.067 203.379 58.5899C203.802 58.102 204.219 57.6521 204.631 57.2401C205.184 56.6871 205.748 56.1558 206.323 55.6462C206.897 55.1366 207.418 54.6921 207.884 54.3126C208.632 55.1909 209.456 56.1341 210.356 57.1425C211.256 58.1508 212.188 59.17 213.153 60.2C214.118 61.2083 215.067 62.1787 216 63.1112C217.084 64.1954 218.081 65.1278 218.992 65.9085C219.892 66.6783 220.71 67.2909 221.448 67.7462C222.543 68.4293 223.508 68.7763 224.343 68.7871C225.178 68.7979 225.92 68.4781 226.571 67.8276C227.286 67.112 227.601 66.3096 227.514 65.4206C227.438 64.5207 227.037 63.5449 226.311 62.4931C225.584 61.4414 224.63 60.3247 223.448 59.1429C223.014 58.7092 222.445 58.1616 221.741 57.5003C221.036 56.8172 220.271 56.0853 219.447 55.3047C218.612 54.5132 217.783 53.738 216.959 52.979C216.135 52.2201 215.381 51.5424 214.698 50.9461C214.005 50.3389 213.457 49.8781 213.056 49.5637C213.49 49.13 214.01 48.6529 214.617 48.1325C215.224 47.5904 215.826 47.0646 216.422 46.555C217.03 46.0345 217.566 45.5954 218.032 45.2376C218.499 44.8798 218.808 44.6576 218.959 44.5708C219.632 45.0479 220.336 45.6008 221.074 46.2297C221.8 46.8477 222.543 47.5037 223.302 48.1976C224.061 48.8915 224.803 49.6017 225.53 50.3281C227.688 52.4857 229.59 54.6162 231.238 56.7196C232.897 58.8122 234.133 60.8722 234.946 62.8997C235.749 64.9164 235.987 66.8897 235.662 68.8196C235.326 70.7387 234.263 72.5928 232.474 74.3817ZM249.354 57.0792C248.931 57.502 248.422 58.0008 247.825 58.5754C247.24 59.1392 246.633 59.703 246.004 60.2668C245.386 60.8198 244.811 61.3077 244.28 61.7305C243.553 61.0475 242.632 60.1693 241.515 59.0959C240.387 58.0116 239.189 56.8569 237.921 55.6318C236.663 54.3957 235.471 53.2139 234.343 52.0863C232.608 50.3515 230.765 48.4867 228.813 46.4917C226.873 44.4859 224.867 42.4041 222.796 40.2465C222.969 40.0514 223.257 39.7532 223.658 39.352C224.048 38.94 224.487 38.4792 224.975 37.9696C225.463 37.4384 225.94 36.9396 226.406 36.4734C226.873 35.9855 227.268 35.5789 227.594 35.2536C228.819 36.3487 230.163 37.5847 231.627 38.9617C233.08 40.3278 234.554 41.7373 236.051 43.1902C237.547 44.6431 238.973 46.0472 240.328 47.4024C241 48.0747 241.694 48.7794 242.41 49.5167C243.136 50.2431 243.852 50.9696 244.556 51.696C245.261 52.4224 245.922 53.1272 246.54 53.8102C247.159 54.4933 247.717 55.1167 248.216 55.6805C248.704 56.2335 249.083 56.6997 249.354 57.0792ZM260.806 45.5626C259.992 46.3758 259.065 47.1077 258.025 47.7582C256.995 48.3979 255.894 48.9238 254.723 49.3358C253.563 49.7369 252.381 49.9863 251.178 50.0839C249.963 50.1706 248.771 50.073 247.6 49.7911C247.556 49.6177 247.545 49.2599 247.567 48.7177C247.578 48.1648 247.61 47.5468 247.665 46.8637C247.708 46.1698 247.773 45.5084 247.86 44.8796C247.957 44.2399 248.066 43.7411 248.185 43.3833C248.933 43.4375 249.703 43.4701 250.495 43.4809C251.297 43.4809 252.083 43.4213 252.853 43.302C253.623 43.1611 254.365 42.928 255.081 42.6027C255.796 42.2774 256.447 41.822 257.032 41.2366C257.705 40.5643 258.111 39.9084 258.252 39.2687C258.404 38.6181 258.377 38.0164 258.171 37.4634C257.954 36.8996 257.645 36.4172 257.244 36.016C256.919 35.6907 256.528 35.463 256.073 35.3329C255.618 35.2028 255.097 35.1703 254.512 35.2353C253.915 35.2896 253.248 35.4359 252.511 35.6745C251.774 35.8913 250.966 36.2112 250.088 36.634C248.288 37.4363 246.586 38.0869 244.981 38.5856C243.366 39.0735 241.848 39.2362 240.427 39.0735C239.018 38.9 237.717 38.217 236.524 37.0243C235.256 35.7558 234.546 34.3409 234.394 32.7796C234.242 31.2183 234.529 29.6407 235.256 28.0469C235.971 26.4422 236.996 24.9731 238.329 23.6395C239.338 22.6312 240.427 21.7692 241.598 21.0536C242.769 20.3163 243.989 19.758 245.258 19.3785C246.526 18.999 247.795 18.8472 249.063 18.9231C249.139 19.3243 249.204 19.8989 249.259 20.647C249.313 21.3951 249.345 22.1649 249.356 22.9564C249.367 23.7479 249.356 24.3985 249.324 24.908C248.467 24.9189 247.605 25.0219 246.738 25.2171C245.859 25.4014 245.03 25.6887 244.249 26.079C243.458 26.4585 242.764 26.9464 242.168 27.5427C241.474 28.2366 241.04 28.9739 240.867 29.7546C240.682 30.5244 240.888 31.2074 241.485 31.8038C241.756 32.0748 242.059 32.2591 242.395 32.3567C242.742 32.4435 243.116 32.4597 243.518 32.4055C243.919 32.3513 244.352 32.2429 244.819 32.0802C245.274 31.9068 245.762 31.6899 246.282 31.4297C247.757 30.6924 249.193 30.0256 250.592 29.4293C252.002 28.8221 253.357 28.3993 254.658 28.1607C255.959 27.9005 257.211 27.9276 258.415 28.2421C259.618 28.5565 260.768 29.2612 261.863 30.3563C262.893 31.3863 263.641 32.5356 264.107 33.8042C264.562 35.0619 264.747 36.3738 264.66 37.7399C264.573 39.0844 264.205 40.4288 263.554 41.7733C262.914 43.1069 261.998 44.37 260.806 45.5626ZM270.325 21.3082C270.011 21.6227 269.566 22.0564 268.992 22.6093C268.406 23.1514 267.81 23.6935 267.203 24.2357C266.596 24.7561 266.091 25.1735 265.69 25.4879C264.606 24.5338 263.473 23.5201 262.291 22.4467C261.098 21.3624 259.9 20.262 258.697 19.1452C257.493 18.0068 256.301 16.8683 255.119 15.7299C253.937 14.5914 252.799 13.4855 251.704 12.4121C250.609 11.3171 249.589 10.2762 248.646 9.28954L254.908 3.54854C255.287 4.03645 255.938 4.82793 256.859 5.92301C257.77 7.00724 258.822 8.2541 260.014 9.6636C261.218 11.0623 262.459 12.4989 263.739 13.9734C265.029 15.4371 266.249 16.8195 267.398 18.1206C268.547 19.4 269.523 20.4625 270.325 21.3082ZM275.855 30.8386C274.857 31.8361 273.719 32.3674 272.44 32.4324C271.171 32.4867 270.065 32.0421 269.122 31.0988C268.189 30.1664 267.794 29.0984 267.935 27.8949C268.076 26.6698 268.612 25.5909 269.545 24.6585C270.488 23.7152 271.572 23.1948 272.797 23.0972C274.033 22.9888 275.08 23.3629 275.936 24.2194C276.934 25.2169 277.405 26.3391 277.351 27.5859C277.297 28.8111 276.798 29.8953 275.855 30.8386Z" fill="white"/>
</g>
<g filter="url(#filter1_d_4002_3)">
<path d="M2 112.711C19.8333 84.3778 70.2 34.9111 129 63.7111" stroke="white" stroke-width="4"/>
</g>
<defs>
<filter id="filter0_d_4002_3" x="123.434" y="3.10944" width="167.129" height="166.129" filterUnits="userSpaceOnUse" color-interpolation-filters="sRGB">
<feFlood flood-opacity="0" result="BackgroundImageFix"/>
<feColorMatrix in="SourceAlpha" type="matrix" values="0 0 0 0 0 0 0 0 0 0 0 0 0 0 0 0 0 0 127 0" result="hardAlpha"/>
<feOffset dx="7" dy="6"/>
<feGaussianBlur stdDeviation="2"/>
<feComposite in2="hardAlpha" operator="out"/>
<feColorMatrix type="matrix" values="0 0 0 0 0 0 0 0 0 0 0 0 0 0 0 0 0 0 0.25 0"/>
<feBlend mode="normal" in2="BackgroundImageFix" result="effect1_dropShadow_4002_3"/>
<feBlend mode="normal" in="SourceGraphic" in2="effect1_dropShadow_4002_3" result="shape"/>
</filter>
<filter id="filter1_d_4002_3" x="0.307373" y="52.9994" width="140.572" height="70.7771" filterUnits="userSpaceOnUse" color-interpolation-filters="sRGB">
<feFlood flood-opacity="0" result="BackgroundImageFix"/>
<feColorMatrix in="SourceAlpha" type="matrix" values="0 0 0 0 0 0 0 0 0 0 0 0 0 0 0 0 0 0 127 0" result="hardAlpha"/>
<feOffset dx="7" dy="6"/>
<feGaussianBlur stdDeviation="2"/>
<feComposite in2="hardAlpha" operator="out"/>
<feColorMatrix type="matrix" values="0 0 0 0 0 0 0 0 0 0 0 0 0 0 0 0 0 0 0.25 0"/>
<feBlend mode="normal" in2="BackgroundImageFix" result="effect1_dropShadow_4002_3"/>
<feBlend mode="normal" in="SourceGraphic" in2="effect1_dropShadow_4002_3" result="shape"/>
</filter>
</defs>
</svg>
